# xmcd CD database file
#
# Track frame offsets:
#	150
#	20844
#	36369
#	46358
#	59931
#	77762
#	93758
#	112581
#	123345
#	142214
#	161566
#	175673
#	188604
#	200361
#	215263
#	229363
#	244231
#	256589
#	268605
#	284830
#	297759
#	321214
#	340478
#
# Disc length: 4671 seconds
#
# Revision: 0
# Processed by: cddbd v1.5.1PL0 Copyright (c) Steve Scherf et al.
# Submitted via: Feurio! 1.67 - http://www.feurio.com
#
DISCID=5c123d17
DTITLE=Michal Tucny - Michal Tucny and pratele
DYEAR=2005
DGENRE=Country
TTITLE0=Michal Tucny and Zdenek Rytir - Kosmickej vandr
TTITLE1=Michal Tucny and Tomas Linka - El Paso
TTITLE2=Michal Tucny and Pavlina Jisova - Rovnou, tady rovnou
TTITLE3=Michal Tucny and Josef Simek - T jako Texas
TTITLE4=Michal Tucny and Tomas Linka - Lojza a Liza
TTITLE5=Michal Tucny and Zdenek Rytir - Chtel bych byt medvidkem
TTITLE6=Michal Tucny and Vera Martinova - Bud nad veci
TTITLE7=Michal Tucny and Tomas Linka - Uz te vlak privazi
TTITLE8=Michal Tucny and Dana Hackerova - Odval ten kamen
TTITLE9=Michal Tucny and Zdenek Rytir - Cista prace
TTITLE10=Michal Tucny and Pavlina Jisova - Sundej z hodin zavazi
TTITLE11=Michal Tucny and Zdenek Rytir, Wabi Ryvola, Pavel Bobek - Desperat
TTITLE12=Michal Tucny and Pavlina Jisova - Mody mesic
TTITLE13=Michal Tucny and Michal David - Uhni, jedu ja
TTITLE14=Michal Tucny and Milena Soukupova - Country kolotoc
TTITLE15=Michal Tucny and Zdenek Rytir - Ucty
TTITLE16=Michal Tucny and Misa Tucna - Sweet Dreams
TTITLE17=Michal Tucny and Tomas Linka - Cizinec
TTITLE18=Michal Tucny and Vera Martinova - Rodinne stesti
TTITLE19=Michal Tucny and Zdenek Rytir - Vcera jsem te nevidel
TTITLE20=Michal Tucny and Allan Mikusek - Len chciet (Vzdyt vis)
TTITLE21=Michal Tucny and Pavlina Jisova - Muj kalendar
TTITLE22=Michal Tucny and Zdenek Rytir - Delame co muzem
EXTD=
EXTT0=
EXTT1=
EXTT2=
EXTT3=
EXTT4=
EXTT5=
EXTT6=
EXTT7=
EXTT8=
EXTT9=
EXTT10=
EXTT11=
EXTT12=
EXTT13=
EXTT14=
EXTT15=
EXTT16=
EXTT17=
EXTT18=
EXTT19=
EXTT20=
EXTT21=
EXTT22=
PLAYORDER=
